# xmcd CD database file
# Generated: Fri Apr 19 18:13:05 2002 by KSCD
# 
# Track frame offsets:
#       150
#       12548
#       24661
#       36993
#       50215
#       59782
#       71019
#       83968
#       97932
#       113724
#       123590
#       136817
#       143737
#       156769
#       175870
#       189199
#       198083
#       209843
#       221241
#       233960
#
# Disc length: 3267 seconds
#
# Revision: 1
# Processed by: cddbd v1.4PL0 Copyright (c) Steve Scherf et al.
# Submitted via: Kscd 1.3.3
#
DISCID=300cc114
DTITLE=Jackie Wilson - The Masters
DYEAR=1900
DGENRE=
TTITLE0=Reet Petite
TTITLE1=Lonely Teardrops
TTITLE2=Doggin' Around
TTITLE3=Baby Workout
TTITLE4=Shake! Shake! Shake!
TTITLE5=To Be Loved
TTITLE6=My Empty Arms
TTITLE7=Shake a Hand
TTITLE8=No Pity (in the naked city)
TTITLE9=Whispers (gettin' louder)
TTITLE10=(your love keeps lifting me) Higher And Higher
TTITLE11=Chain Gang
TTITLE12=I Get The Sweetest Feeling
TTITLE13=Danny Boy
TTITLE14=I Just Can't Help It
TTITLE15=Squeeze Her - Tease Her (but love her)
TTITLE16=The Tear of the Year
TTITLE17=Think Twice
TTITLE18=Light My Fire
TTITLE19=A Woman, A Lover, A Friend
EXTD=
EXTT0=
EXTT1=
EXTT2=
EXTT3=
EXTT4=
EXTT5=
EXTT6=
EXTT7=
EXTT8=
EXTT9=
EXTT10=
EXTT11=
EXTT12=
EXTT13=
EXTT14=
EXTT15=
EXTT16=
EXTT17=
EXTT18=
EXTT19=
PLAYORDER=
